<svg id="fdd2e1de-7096-42b6-a139-6a8d56519e98" data-name="Layer 1" xmlns="http://www.w3.org/2000/svg" xmlns:xlink="http://www.w3.org/1999/xlink" viewBox="0 0 700.88 177">
  <defs>
    <style>
      .ebb4443f-decc-4f67-9d9f-5bfd601c3f2b {
        filter: url(#a0d80413-0c5e-4b7e-a5eb-c8f84b605811);
        font-size: 116.42px;
        letter-spacing: 0.06em;
      }

      .bb1c38b7-2210-437c-880f-c6184e154cb1, .ebb4443f-decc-4f67-9d9f-5bfd601c3f2b {
        fill: #fff;
        font-family: AtramentSemiBold-Regular, Atrament;
      }

      .b14337be-b03c-4447-bc31-82db20660f49 {
        letter-spacing: 0.07em;
      }

      .a12015be-ed4a-4c46-a67e-ae6c37001d4c, .b5f12255-fef6-492e-9b12-9350d22e81db {
        letter-spacing: 0.06em;
      }

      .b5f12255-fef6-492e-9b12-9350d22e81db {
        fill: #009245;
      }

      .a541dead-7f64-4809-b0c8-c94b37d57339, .b3e419fa-9cf2-4f22-8b28-03184d90ed7f, .e9e980c3-4846-427d-aeff-6124a85fb910 {
        fill: #66f7b1;
      }

      .e9e980c3-4846-427d-aeff-6124a85fb910 {
        letter-spacing: 0.07em;
      }

      .a541dead-7f64-4809-b0c8-c94b37d57339 {
        letter-spacing: 0.06em;
      }

      .fa5f7c80-69b8-4dac-81de-ed2cf2955555 {
        fill: #22c67f;
        font-size: 10px;
        letter-spacing: 0.06em;
      }

      .bb1c38b7-2210-437c-880f-c6184e154cb1 {
        filter: url(#f0895129-30e5-48bc-923c-72ede51a155f);
        font-size: 84.86px;
        letter-spacing: 0.2em;
      }

      .b3e419fa-9cf2-4f22-8b28-03184d90ed7f {
        filter: url(#b59d03ee-9048-4f5f-ac55-90ba6e38cfcf);
        font-size: 35px;
        font-family: TrebuchetMS-Bold, Trebuchet MS;
        font-weight: 700;
        letter-spacing: -0.01em;
      }

      .e2a5b9fd-d46c-4dec-84aa-b9ff560033cd {
        fill: #40dd96;
        stroke: #40dd96;
        stroke-miterlimit: 10;
        stroke-width: 3.86px;
      }

      .b6427d01-8068-4324-afa2-2a8c4cf5a14e {
        filter: url(#f0ca9956-cfec-4ec2-b52e-93c5ece35195);
      }

      .a15e3f02-918b-497e-bf7f-4f9e947b60b8 {
        fill: none;
        stroke: #fff;
        stroke-linecap: round;
        stroke-linejoin: round;
        stroke-width: 4px;
      }
    </style>
    <filter id="a0d80413-0c5e-4b7e-a5eb-c8f84b605811" x="92.88" y="0" width="608" height="152" filterUnits="userSpaceOnUse">
      <feOffset dx="6" dy="6" input="SourceAlpha"/>
      <feGaussianBlur stdDeviation="4" result="a4c4ae36-1ce4-4347-a5e4-d2418cd30add"/>
      <feFlood flood-color="#010f06"/>
      <feComposite operator="in" in2="a4c4ae36-1ce4-4347-a5e4-d2418cd30add"/>
      <feComposite in="SourceGraphic"/>
    </filter>
    <filter id="f0895129-30e5-48bc-923c-72ede51a155f" x="577.88" y="9" width="64" height="118" filterUnits="userSpaceOnUse">
      <feOffset dx="6" dy="6" input="SourceAlpha"/>
      <feGaussianBlur stdDeviation="4" result="a1592a18-7f0c-419b-a443-c8cf66feee09"/>
      <feFlood flood-color="#010f06"/>
      <feComposite operator="in" in2="a1592a18-7f0c-419b-a443-c8cf66feee09"/>
      <feComposite in="SourceGraphic"/>
    </filter>
    <filter id="b59d03ee-9048-4f5f-ac55-90ba6e38cfcf" x="86.88" y="111" width="601" height="66" filterUnits="userSpaceOnUse">
      <feOffset dy="6" input="SourceAlpha"/>
      <feGaussianBlur stdDeviation="4" result="aabd697b-8ac4-4da4-bfd8-5191b17f2b7d"/>
      <feFlood flood-color="#010f06"/>
      <feComposite operator="in" in2="aabd697b-8ac4-4da4-bfd8-5191b17f2b7d"/>
      <feComposite in="SourceGraphic"/>
    </filter>
    <filter id="f0ca9956-cfec-4ec2-b52e-93c5ece35195">
      <feOffset dy="6" input="SourceAlpha"/>
      <feGaussianBlur stdDeviation="3" result="fd52e651-688e-4abc-b3f5-d412f07aebed"/>
      <feFlood flood-color="#010f06"/>
      <feComposite operator="in" in2="fd52e651-688e-4abc-b3f5-d412f07aebed"/>
      <feComposite in="SourceGraphic"/>
    </filter>
  </defs>
  <g>
    <text class="ebb4443f-decc-4f67-9d9f-5bfd601c3f2b" transform="translate(98.9 106.73) scale(0.77 1)">J<tspan class="b14337be-b03c-4447-bc31-82db20660f49" x="56.81" y="0">ERSE</tspan><tspan class="a12015be-ed4a-4c46-a67e-ae6c37001d4c" x="274.04" y="0">Y</tspan><tspan class="b5f12255-fef6-492e-9b12-9350d22e81db" x="329.23" y="0"> </tspan><tspan class="e9e980c3-4846-427d-aeff-6124a85fb910" x="361.12" y="0">WYLDLF</tspan><tspan class="a541dead-7f64-4809-b0c8-c94b37d57339" x="702.69" y="0">E</tspan><tspan class="fa5f7c80-69b8-4dac-81de-ed2cf2955555" x="751.47" y="0"> </tspan></text>
    <text class="bb1c38b7-2210-437c-880f-c6184e154cb1" transform="translate(584.04 89.05) scale(1.17 1)">i</text>
    <text class="b3e419fa-9cf2-4f22-8b28-03184d90ed7f" transform="translate(99.02 148.84) rotate(-0.13) scale(1.16 1)">Humane Wildlife Removal, LLC</text>
    <path class="e2a5b9fd-d46c-4dec-84aa-b9ff560033cd" d="M78.67,23.67v0Z"/>
    <g class="b6427d01-8068-4324-afa2-2a8c4cf5a14e">
      <polyline class="a15e3f02-918b-497e-bf7f-4f9e947b60b8" points="6.53 104.98 6.48 104.98 6.48 104.94 6.69 104.73 6.91 104.48 6.99 104.48 7.37 104.27 8.22 103.84 7.84 103.55 8.22 103.29 8.3 103.25 8.43 103.17 8.51 103.12 8.81 102.87 9.15 102.62 9.27 102.49 9.44 102.36 9.57 102.23 9.74 102.11 10.2 101.69 10.25 101.6 10.41 101.52 10.5 101.47 10.63 101.39 10.71 101.35 10.75 101.31 10.8 101.31 11.22 101.18 11.52 101.14 11.68 101.14 11.73 101.14 11.77 101.14 12.02 101.09 12.36 101.14 12.45 101.18 12.7 101.18 12.87 101.18 12.91 101.18 13.5 101.18 13.54 101.18 13.59 101.18 14.14 101.05 14.69 100.92 14.98 100.8 15.24 100.71 15.57 100.59 16 100.33 16.38 99.95 16.59 99.78 16.59 99.74 16.84 99.57 17.01 99.53 17.05 99.53 17.39 99.49 18.37 99.49 18.58 99.4 18.7 99.32 18.79 99.19 18.96 98.94 19.04 98.81 19.17 98.6 19.21 98.34 19.21 98.22 19.25 98 19.25 97.88 19.21 97.79 19.17 97.71 19.13 97.63 19.09 97.5 19 97.29 19 97.2 19 97.08 18.96 96.91 18.96 96.86 18.96 96.53 18.96 96.36 18.96 96.27 18.96 96.19 19 96.14 19 96.1 19 96.06 19.04 95.89 19.09 95.81 19.21 95.59 19.21 95.55 19.25 95.55 19.34 95.47 19.38 95.42 19.42 95.38 19.64 95.26 19.89 95.09 20.06 95 20.65 94.79 20.86 94.75 21.5 94.45 21.62 94.33 21.71 94.24 21.75 94.2 21.96 93.94 22.05 93.86 22.3 93.31 22.34 93.22 22.51 93.01 22.68 92.89 22.76 92.84 22.81 92.8 22.85 92.8 23.19 92.67 23.23 92.67 23.57 92.55 23.74 92.46 23.78 92.46 23.82 92.46 23.86 92.42 23.95 92.38 24.07 92.3 24.29 92.08 24.79 91.58 24.88 91.45 24.92 91.41 25 91.28 25.09 91.19 25.39 90.98 25.68 90.77 25.89 90.69 26.48 90.31 26.57 90.26 26.99 90.01 27.08 89.97 27.25 89.93 27.33 89.88 27.37 89.88 27.37 89.84 27.5 89.84 27.88 89.93 27.97 89.88 28.22 89.8 28.39 89.76 28.81 89.63 29.11 89.46 29.57 89.33 29.78 89.29 29.87 89.21 29.91 89.16 30 88.95 30.08 88.83 30.16 88.74 30.25 88.66 30.29 88.61 30.38 88.57 30.42 88.57 30.46 88.53 30.59 88.49 30.8 88.32 30.93 88.19 30.97 88.02 31.01 87.77 31.09 87.56 31.09 87.52 31.14 87.43 31.18 87.34 31.26 87.13 31.43 87.01 31.56 86.97 31.64 86.97 31.81 87.01 31.9 87.05 32.11 87.13 32.28 87.22 32.66 87.3 32.74 87.34 32.83 87.34 32.87 87.34 33 87.3 33.25 87.09 33.51 86.88 33.76 86.71 33.93 86.63 34.01 86.63 34.05 86.58 34.1 86.58 34.44 86.63 34.56 86.63 34.65 86.58 35.24 86.03 35.28 85.95 35.37 85.82 35.41 85.61 35.41 85.4 35.37 85.27 34.94 84.55 34.77 84.38 34.52 84.22 34.22 84.09 34.18 84.09 34.1 84 34.05 83.92 34.01 83.79 33.89 83.37 33.89 83.33 33.89 83.28 33.72 83.03 33.63 82.82 33.59 82.73 33.51 82.48 33.46 82.48 33.46 82.44 33.21 82.27 33.21 82.23 33.17 82.23 33.08 82.14 33.04 82.14 33 82.06 32.96 82.02 32.87 82.02 32.83 81.93 32.74 81.89 32.49 81.72 32.28 81.59 31.56 81.25 31.39 81.08 31.31 81.04 30.88 80.83 30.67 80.62 30.5 80.2 30.25 79.65 30.12 79.22 29.95 78.89 29.78 78.55 29.66 78.33 29.15 77.78 29.07 77.7 28.94 77.57 28.9 77.53 28.73 77.41 28.56 77.28 28.35 77.28 28.26 77.28 28.05 77.19 27.71 76.9 27.37 76.56 27.33 76.56 27.08 76.35 26.82 76.09 26.7 75.92 26.7 75.88 26.61 75.63 26.61 75.5 26.61 75.2 26.61 75.12 26.48 74.74 26.36 74.27 26.32 74.15 26.27 74.11 26.15 73.77 25.89 73.13 25.85 73.05 25.77 73 25.68 72.92 25.3 72.75 25.22 72.71 25.17 72.71 25.17 72.67 25.09 72.63 25.05 72.58 25 72.58 25 72.54 24.92 72.45 24.63 72.37 24.54 72.37 24.37 72.5 23.82 72.67 23.52 72.71 23.48 72.71 23.4 72.71 23.36 72.71 23.31 72.67 23.19 72.63 23.06 72.54 23.02 72.5 22.85 72.37 22.81 72.29 22.76 72.29 22.72 72.24 22.64 72.16 22.55 72.16 22.34 72.08 22.3 72.08 22.26 72.03 22.21 71.99 22.17 71.95 22.13 71.86 22.13 71.82 22.09 71.78 22.09 71.69 22 71.14 21.83 70.38 21.71 70.04 21.71 70 21.79 69.71 21.83 69.62 21.88 69.54 21.83 69.54 21.83 69.37 21.83 69.11 21.96 68.94 22.05 68.69 22.09 68.44 22.05 68.18 22.05 68.06 21.96 67.51 21.92 67.17 21.92 66.83 21.92 66.75 21.96 66.41 21.92 65.86 21.88 65.69 21.83 65.56 21.45 65.26 21.24 64.97 21.11 64.84 20.78 64.42 20.61 64.25 20.57 64.21 20.18 64.08 19.93 63.95 19.72 63.91 19.17 63.83 19.13 63.83 19.04 63.83 18.96 63.83 18.92 63.87 18.83 63.91 18.75 63.95 18.7 63.99 18.66 64.04 18.32 64.33 18.28 64.33 18.15 64.42 17.98 64.42 17.9 64.42 17.82 64.38 17.69 64.38 17.65 64.38 17.61 64.33 17.39 64.25 17.35 64.25 17.31 64.21 17.27 64.16 17.18 64.12 17.1 64.04 16.97 63.87 16.93 63.78 16.89 63.66 16.89 63.61 16.89 63.49 16.93 63.45 17.01 63.28 17.05 63.23 17.05 63.06 17.1 63.06 17.05 63.02 17.05 62.98 17.05 62.94 17.05 62.9 17.01 62.43 16.84 62.22 16.84 62.09 16.76 61.97 16.63 61.8 16.63 61.67 16.67 61.63 16.8 61.54 17.05 61.54 17.14 61.46 17.14 61.41 17.14 61.29 17.1 60.78 17.05 60.61 17.01 60.44 16.97 60.4 16.97 60.36 16.67 60.15 16.72 60.02 16.84 59.72 17.05 59.43 17.1 59.38 17.18 59.26 17.39 59.17 17.43 59.09 17.48 59.05 17.48 59 17.52 58.92 17.61 58.83 17.65 58.66 17.61 58.58 17.61 58.54 17.56 58.54 17.52 58.5 17.48 58.5 17.48 58.45 17.43 58.45 17.39 58.45 17.35 58.45 17.14 58.45 17.1 58.45 16.84 58.37 16.67 58.16 16.67 58.12 16.67 58.07 16.63 58.03 16.63 57.95 16.59 57.82 16.63 57.69 16.63 57.65 16.72 57.35 16.8 57.14 16.8 57.06 16.89 56.85 16.97 56.68 17.01 56.63 17.01 56.59 17.14 56.47 17.27 56.17 17.31 56.17 17.31 56.13 17.31 56.09 17.43 55.87 17.43 55.79 17.43 55.66 17.35 55.53 17.31 55.53 17.31 55.49 17.27 55.45 17.14 55.32 16.93 55.07 16.89 54.98 16.89 54.82 16.89 54.73 16.93 54.69 17.1 54.52 17.43 54.35 17.56 54.22 17.65 54.1 17.69 53.88 17.73 53.67 17.77 53.55 17.82 53.5 17.86 53.46 17.86 53.42 17.94 53.38 18.11 53.38 18.2 53.38 18.32 53.42 18.75 53.59 19.13 53.63 19.34 53.63 19.38 53.59 19.46 53.5 19.59 53.29 19.68 53.08 19.76 52.95 19.93 52.87 19.97 52.87 20.02 52.83 20.06 52.83 20.23 52.78 20.27 52.78 20.35 52.74 20.65 52.28 20.69 52.23 20.69 52.11 20.65 51.98 20.69 51.9 20.78 51.77 20.86 51.64 21.07 51.47 21.28 51.14 21.33 51.05 21.33 51.01 21.33 50.88 21.33 50.84 21.28 50.8 21.28 50.76 21.2 50.67 20.9 50.37 20.82 50.25 20.78 50.16 20.78 50.08 20.82 49.99 20.86 49.87 21.07 49.74 21.62 49.74 21.75 49.78 21.83 49.87 22.05 49.82 22.09 49.82 22.26 49.57 22.51 49.23 22.55 49.23 22.55 49.1 22.59 48.98 22.64 48.94 22.64 48.81 22.59 48.68 22.59 48.6 22.51 48.51 22.34 48.3 22.21 48.05 22.13 47.96 22.09 47.88 21.75 47.54 21.66 47.45 21.66 47.37 21.71 47.12 21.66 46.78 21.62 46.65 21.62 46.57 21.54 46.48 21.54 46.44 21.24 46.19 21.16 46.1 20.9 45.89 20.82 45.76 20.73 45.59 20.52 45.26 20.48 45.09 20.27 44.66 20.06 44.41 20.02 44.24 19.97 43.94 19.97 43.9 19.93 43.82 19.97 43.69 19.93 43.61 19.93 43.56 19.85 43.52 19.59 43.56 19.51 43.56 19.42 43.48 19.38 43.31 19.38 43.18 19.46 43.01 19.51 42.89 19.51 42.76 19.51 42.55 19.55 42.46 19.55 42.42 19.64 42.38 19.68 42.34 19.68 42.3 19.85 42.17 20.35 41.87 20.4 41.79 20.73 41.66 20.78 41.62 20.9 41.53 20.95 41.53 21.03 41.41 21.11 41.36 21.16 41.32 21.16 41.24 21.5 41.11 21.75 41.11 21.92 41.03 22.93 40.43 23.1 40.35 23.31 40.09 23.48 40.01 23.65 39.97 23.69 39.93 23.65 39.71 23.65 39.63 23.91 39.29 23.99 39.16 24.07 38.99 24.07 38.87 24.2 38.61 24.24 38.53 24.41 38.53 24.71 38.19 24.88 38.06 25.09 37.98 25.34 37.94 25.81 37.64 25.89 37.52 25.98 37.22 25.98 37.18 25.98 37.13 25.94 37.09 25.89 37.09 25.77 37.09 25.64 37.18 25.43 37.39 25.3 37.43 25.26 37.47 25.13 37.47 25.05 37.47 25 37.43 25 37.26 25.39 36.46 25.47 36.33 25.72 36.2 25.89 36.16 26.02 36.16 26.06 36.12 26.74 35.65 26.74 35.61 26.74 35.53 26.82 35.4 27.37 35.15 27.67 34.93 28.39 34 28.52 33.71 28.56 33.58 28.6 33.5 29.02 33.12 29.28 32.73 29.45 32.4 29.45 32.23 29.61 31.8 29.7 31.68 29.7 31.59 29.87 31.3 30.16 30.83 30.16 30.75 30.21 30.7 30.12 30.58 29.91 30.37 29.87 30.32 29.91 30.07 30.08 29.82 30.12 29.6 30.29 29.22 30.33 29.18 30.38 29.14 30.59 29.1 30.67 29.01 30.71 28.93 30.76 28.76 30.71 28.59 30.71 28.55 30.71 28.5 30.93 28.08 30.97 27.91 31.01 27.83 31.01 27.79 31.09 27.66 31.18 27.57 31.35 27.28 31.64 26.9 31.9 26.81 32.02 26.69 32.24 26.43 32.79 26.05 32.83 26.01 32.79 25.88 32.7 25.67 32.66 25.67 32.7 25.54 32.83 25.46 32.87 25.42 32.96 25.42 33 25.37 33.17 25.37 33.21 25.37 33.38 25.37 33.51 25.37 33.51 25.33 33.55 25.33 33.59 25.33 33.63 25.33 33.67 25.29 33.8 25.12 33.84 25.08 33.89 25.04 33.93 24.99 33.93 24.91 34.01 24.74 34.05 24.57 34.05 24.53 34.22 24.27 34.31 24.27 34.35 24.23 34.44 24.23 35.03 24.23 35.2 24.23 35.58 24.19 36.09 23.89 36.21 23.85 36.38 23.81 36.59 23.64 36.63 23.68 36.68 23.72 36.97 23.89 37.4 24.15 37.86 24.44 38.37 24.74 38.66 24.91 39.98 25.71 41.29 26.52 41.75 26.81 41.79 26.81 41.84 26.86 41.96 26.94 42.72 27.41 43.15 27.7 44.16 28.29 45.05 28.84 45.26 28.97 45.39 29.05 45.81 29.31 46.49 29.73 46.87 30.03 47.08 30.15 47.16 30.2 47.21 30.24 47.25 30.24 47.46 30.41 47.5 30.41 48.69 31.21 48.77 31.25 48.86 31.3 49.02 31.42 49.2 31.51 49.36 31.59 49.79 31.85 50.04 32.02 50.21 32.14 50.29 32.19 50.8 32.48 51.1 32.65 51.1 32.69 51.86 33.16 52.7 33.66 54.14 34.51 54.48 34.68 54.52 34.72 55.33 35.15 55.54 35.27 56.05 35.53 56.51 35.78 57.27 36.25 57.31 36.25 57.4 36.29 57.44 36.33 57.78 36.5 57.78 36.54 57.86 36.58 57.91 36.58 58.08 36.71 58.58 36.97 58.67 37.01 58.67 37.05 58.84 37.13 58.92 37.18 58.96 37.22 59.26 37.39 59.47 37.52 59.6 37.56 59.81 37.68 59.85 37.73 60.02 37.81 60.44 38.06 60.53 38.11 60.82 38.28 60.99 38.36 61.33 38.57 61.42 38.61 61.5 38.7 61.59 38.74 61.63 38.74 62.05 38.99 62.18 39.08 62.22 39.08 62.35 39.16 62.64 39.33 62.69 39.38 63.11 39.63 63.15 39.63 63.66 39.93 63.87 40.05 64.55 40.43 64.93 40.69 65.22 40.86 65.48 40.98 65.52 41.03 65.77 41.15 66.03 41.32 66.7 41.7 66.79 41.74 67.08 41.91 67.25 42.08 67.34 42.13 67.46 42.13 67.8 42.13 67.67 42.93 67.59 43.27 67.38 44.16 67.29 44.49 67.17 45 67.08 45.3 66.96 45.85 66.87 46.14 66.87 46.23 66.83 46.4 66.79 46.44 66.53 47.37 66.45 47.67 66.28 48.05 66.11 48.43 65.73 49.27 65.56 49.66 65.48 49.82 65.14 50.92 65.05 51.09 64.97 51.22 64.93 51.22 64.59 51.85 64.42 52.19 64.29 52.45 64.04 52.91 64 53 63.91 53.21 63.78 53.42 63.7 53.55 63.66 53.63 63.36 54.18 63.23 54.44 63.19 54.56 63.02 55.41 62.98 55.7 62.94 55.92 62.9 55.96 62.9 56.04 62.9 56.13 62.9 56.17 62.85 56.25 62.85 56.42 62.81 56.63 62.81 56.68 62.81 56.76 62.77 56.97 62.22 56.93 62.18 56.97 62.13 57.02 62.05 57.14 62.05 57.19 61.71 57.69 61.54 57.82 61.46 57.9 61.08 58.2 60.99 58.28 60.95 58.33 60.82 58.45 60.53 58.79 60.49 58.83 60.44 58.96 60.32 59.26 60.23 59.55 60.32 59.85 60.06 60.06 59.51 60.19 59.34 60.23 59.05 60.27 58.84 60.31 58.5 60.4 58.16 60.48 58.12 60.48 57.44 60.36 56.64 60.23 56.47 60.27 56.38 60.31 56.38 60.36 56.34 60.4 56.26 60.48 56.05 60.74 55.88 60.95 55.83 61.03 55.79 61.5 55.75 61.8 55.71 62.3 55.66 62.9 55.62 63.23 55.62 63.32 55.58 63.83 55.58 63.87 55.45 64.29 55.33 64.67 55.2 64.84 54.78 64.76 54.69 64.76 54.02 65.22 53.93 65.6 53.93 65.73 54.06 66.32 54.1 66.7 53.89 67 53.68 67.3 53.59 67.38 53.47 67.55 53.42 67.59 53.34 67.72 53.3 67.76 53.25 67.84 53.17 68.06 53.09 68.39 53.13 68.52 53.13 68.61 53.21 68.86 53.3 69.24 53.3 69.28 53.51 69.62 53.68 69.66 53.76 69.71 54.52 69.96 55.03 70.26 55.58 70.51 55.58 70.59 55.71 70.85 55.71 70.93 55.62 71.02 55.66 71.1 55.88 70.93 56.13 70.85 56.17 70.81 56.3 70.72 56.43 70.51 56.93 70.09 56.93 70.13 56.93 70.38 56.85 70.47 56.93 70.55 57.15 70.34 57.23 70.42 57.27 70.51 57.36 70.42 57.4 70.42 57.61 70.51 57.78 70.47 57.82 70.51 57.82 70.47 57.99 70.38 58.2 70.34 58.33 70.17 58.37 70.13 58.46 70.09 58.5 70.09 58.54 70.13 58.67 70.17 58.75 70.26 58.79 70.3 58.92 70.38 59.01 70.42 59.22 70.55 59.77 70.72 60.19 70.89 60.23 70.89 60.36 70.93 60.61 71.06 60.82 71.19 61.16 71.48 61.25 71.53 61.42 71.65 61.42 71.69 61.46 71.69 61.5 71.74 61.67 71.82 61.71 71.82 61.92 71.95 62.39 72.03 63.57 72.33 63.74 72.33 63.87 72.33 64.72 72.45 64.8 72.92 64.88 73.64 64.97 74.36 64.97 74.87 64.97 75.59 64.97 75.67 64.93 76.01 64.88 76.39 64.84 76.9 64.8 77.32 64.8 77.36 64.76 77.66 64.76 77.95 64.76 78.08 64.72 78.33 64.63 78.76 64.59 79.1 64.55 79.27 64.46 79.56 64.46 79.73 64.38 80.07 64.12 81.25 64.08 81.47 64.04 81.64 64.04 81.72 63.95 81.93 63.95 82.06 63.91 82.1 63.91 82.27 63.87 82.31 63.78 82.73 63.78 82.78 63.7 83.03 63.7 83.16 63.66 83.28 63.62 83.41"/>
      <polyline class="a15e3f02-918b-497e-bf7f-4f9e947b60b8" points="63.62 83.41 63.57 83.62 63.53 83.83 63.49 83.92 63.45 84.13 63.4 84.3 63.4 84.38 63.36 84.51 63.28 84.89 63.06 85.65 62.9 86.37 62.81 86.67 62.73 87.18 62.69 87.43 62.56 88.19 62.64 88.28 62.69 88.32 62.6 88.36 62.52 88.7 62.39 89.08 62.39 89.21 62.35 89.29 62.3 89.59 62.13 90.52 61.84 92.13 61.67 93.18 61.63 93.44 61.5 94.11 61.42 94.49 61.42 94.58 61.42 94.62 61.33 94.96 61.33 95.09 61.25 95.59 61.25 95.81 61.16 96.14 61.12 96.61 61.08 96.74 61.08 96.91 60.99 97.37 60.99 97.54 60.91 97.96 60.91 98.09 60.87 98.43 60.87 98.6 60.74 99.95 60.66 100.71 60.66 100.88 60.4 103.8 60.15 105.45 60.15 105.49 60.15 105.62 60.15 105.7 60.06 105.87 59.98 106.04 59.68 106.55 59.55 106.76 59.51 106.85 59.47 106.93 59.05 107.95 58.88 108.41 58.46 109.34 58.41 109.47 58.41 109.51 58.37 109.55 58.24 109.72 57.78 110.53 57.27 111.46 57.19 111.54 56.76 112.3 56.47 112.81 55.88 113.91 55.58 114.42 55.5 114.55 55.45 114.67 54.9 115.69 54.52 116.32 54.52 116.36 54.48 116.45 54.44 116.49 54.35 116.58 54.19 116.75 54.14 116.79 54.1 116.83 53.63 117.59 53.04 118.56 52.49 118.86 52.45 118.86 52.28 118.9 51.69 118.94 51.65 119.28 51.6 119.49 51.56 119.58 51.77 120.09 51.94 120.13 52.03 120.34 51.94 120.72 51.1 122.2 50.76 122.75 50 123.68 49.66 124.11 49.53 124.23 49.45 124.32 49.45 124.36 49.41 124.36 49.2 124.53 49.11 124.57 48.81 124.82 48.6 124.99 48.48 125.12 48.35 125.2 47.88 125.59 47.88 125.75 47.84 125.92 47.84 125.97 47.84 126.05 47.8 126.22 47.67 126.39 47.63 126.43 47.59 126.47 47.42 126.52 47.21 126.6 46.91 126.77 46.87 126.77 46.53 126.9 46.36 126.98 46.28 127.02 46.23 127.07 46.06 127.11 45.94 127.19 45.9 127.19 45.77 127.23 45.73 127.28 45.6 127.36 45.39 127.49 45.13 127.66 45.09 127.7 44.92 127.78 44.88 127.83 44.75 127.91 44.54 128.04 44.42 128.12 44.37 128.17 44.29 128.21 44.12 128.29 44.08 128.34 44.03 128.38 43.91 128.46 43.82 128.5 43.78 128.5 43.7 128.59 43.53 128.72 43.27 128.84 42.51 129.56 42.09 129.9 42.05 130.07 42.01 130.24 41.96 130.37 41.88 130.41 41.84 130.49 41.75 130.58 41.75 130.62 41.71 130.66 41.63 130.7 41.54 130.75 41.46 130.79 41.33 130.87 41.08 131 40.95 131.04 40.91 131.09 40.82 131.17 40.69 131.25 40.65 131.3 40.57 131.38 40.23 131.68 40.19 131.76 39.81 132.14 39.59 132.4 39.55 132.4 39.55 132.44 39.38 132.69 38.88 133.41 38.71 133.62 38.28 134.09 38.28 134.17 38.24 134.3 38.07 134.81 38.03 134.85 37.35 135.65 37.35 135.7 37.27 135.74 37.23 135.91 36.55 137.05 36.55 137.09 36.42 137.3 36.13 137.81 36.04 138.02 35.92 138.19 35.83 138.32 35.75 138.53 35.58 138.83 35.53 139 35.58 139.12 35.96 139.46 35.92 139.71 35.66 139.97 35.62 140.01 35.58 140.05 35.2 140.52 34.6 141.15 34.22 141.79 33.89 142.29 32.96 143.82 32.66 144.96 32.66 145 32.41 145.43 32.02 145.59 31.98 145.59 31.77 145.72 31.69 145.81 31.35 146.06 31.22 146.19 31.01 146.35 30.93 146.44 30.21 147.16 30.08 147.33 29.49 148.05 29.49 148 29.32 147.92 29.28 147.88 28.81 147.96 28.77 147.96 28.6 148.05 28.47 148.13 27.8 148.47 27.67 148.51 27.46 148.56 27.29 148.6 27.25 148.64 27.2 148.64 27.04 148.64 26.74 148.64 25.68 148.51 25.51 148.51 25.39 148.39 25.17 148.05 25.47 146.65 25.51 146.61 25.51 146.57 25.68 145.81 25.68 145.68 25.77 145.3 25.81 145.17 25.81 145.13 25.85 144.92 25.98 144.62 25.98 144.54 26.11 144.2 26.11 144.16 26.23 143.86 26.27 143.82 26.36 143.61 26.44 143.39 26.57 143.18 26.57 143.14 26.65 143.01 26.65 142.97 26.7 142.93 26.99 142.38 27.08 142.17 27.33 141.66 27.75 140.86 27.88 140.6 27.97 140.48 28.09 140.22 28.22 139.88 28.3 139.54 28.43 139.16 28.43 139.12 28.43 139.08 28.68 137.6 28.64 136.84 28.64 136.79 28.6 136.75 28.47 136.58 28.43 136.58 27.92 135.99 27.8 135.95 27.54 135.82 26.7 135.53 25.72 135.19 25.64 135.19 25.51 135.15 25.26 135.1 25.09 135.06 25.05 135.06 24.63 135.1 24.2 135.1 23.69 135.06 23.1 134.98 22.98 134.93 23.02 134.68 23.19 134.51 23.19 134.43 23.1 134.22 23.1 134.17 23.1 134.13 22.93 134.05 22.72 133.88 22.47 133.83 22.34 133.96 22.21 134.05 22.05 133.96 21.62 133.96 20.69 134.22 20.27 134.09 20.1 134.05 19.85 134.05 19.8 134.09 19.72 134.13 19.55 134.26 19.21 134.81 19.04 135.15 18.66 135.7 18.58 135.65 18.2 135.27 17.82 134.89 17.48 134.51 17.52 134.13 17.56 133.75 17.31 132.82 17.05 132.4 15.91 131.38 15.66 131.38 15.32 131.21 15.19 131.13 14.73 130.92 14.52 130.79 14.47 130.79 14.39 130.58 14.43 130.45 14.43 130.28 14.39 130.2 14.1 129.48 14.1 129.44 14.01 129.44 13.67 129.35 13.46 129.27 13.29 129.22 12.91 129.48 12.87 129.48 12.74 129.82 12.61 129.99 12.49 129.86 11.94 129.35 11.56 128.88 11.3 128.21 11.13 127.74 11.09 127.45 11.09 127.41 11.01 127.32 10.84 127.07 10.5 126.9 9.99 126.94 9.87 127.02 9.74 127.15 9.61 127.28 8.6 126.39 8.43 126.09 8.43 125.88 8.43 125.8 8.39 125.71 8.3 125.46 8.26 125.33 8.26 125.29 8.22 125.29 8.09 125.25 7.92 125.16 7.67 125.08 7.33 124.95 7.33 124.91 6.95 124.66 6.53 124.11 6.31 123.68 6.19 123.34 5.93 122.79 5.64 122.24 5.64 122.2 5.21 122.24 4.92 122.12 4.33 121.69 4.07 121.48 4.03 121.48 4.03 121.44 3.99 121.36 3.94 121.14 2.89 121.06 2.85 121.06 2.8 121.06 2.55 120.55 2.51 120.21 2.51 120.09 2.51 120.04 2.59 119.2 3.18 119.16 3.23 119.03 3.18 119.03 3.14 118.99 3.1 118.99 3.1 118.78 3.1 118.48 3.23 117.67 3.23 117.42 3.23 117.21 3.06 117.17 2.97 116.96 3.02 116.83 3.27 116.53 3.56 116.19 3.73 115.81 3.78 115.77 3.86 115.56 3.82 115.05 3.73 114.88 3.56 114.76 3.48 114.76 3.31 114.71 3.1 114.5 2.97 114.38 2.85 114.25 2.76 114.21 2.76 114.16 2.59 114.08 2.55 114.04 2.21 113.78 2.13 113.57 2.08 113.53 2.08 113.4 2.08 113.28 2.04 112.98 2 112.64 2 112.39 2 112.34 2.08 112.22 2.13 112.09 2.34 111.92 2.38 111.92 2.51 111.8 2.59 111.67 2.68 111.58 2.72 111.54 2.8 111.5 2.97 111.46 3.1 111.33 3.1 111.29 3.23 111.16 3.31 111.08 3.31 111.03 3.35 110.99 3.4 110.95 3.4 110.91 3.48 110.78 3.61 110.65 3.65 110.61 3.73 110.44 3.82 110.36 3.9 110.06 3.94 110.02 4.03 109.51 4.03 109.47 4.03 109.05 4.11 108.92 4.24 108.83 4.54 108.71 4.66 108.41 4.71 108.28 4.75 108.2 4.88 107.99 5 107.95 5.09 107.99 5.13 107.99 5.13 108.03 5.26 108.07 5.3 107.99 5.34 107.82 5.3 107.73 5.34 107.48 5.38 107.31 5.38 107.19 5.42 107.06 5.47 106.97 5.47 106.93 5.55 106.76 5.59 106.64 5.64 106.55 5.76 106.17 5.81 106.04 5.89 105.79 5.89 105.62 5.97 105.53 6.06 105.41 6.36 105.24 6.53 105.03 6.53 104.98"/>
    </g>
  </g>
</svg>
